<svg width="152" height="33" viewBox="0 0 152 33" fill="none" xmlns="http://www.w3.org/2000/svg">
<path d="M6.1703 21.0221V33.0001H0V1.20996H11.8289C18.0895 1.20996 22.2432 5.38411 22.2432 11.1311C22.2432 16.9084 18.0895 21.0523 11.8289 21.0523H6.1703V21.0221ZM11.0764 15.6985C14.1465 15.6985 16.0428 13.9139 16.0428 11.1614C16.0428 8.34837 14.1766 6.59401 11.0764 6.59401H6.2004V15.6985H11.0764Z" fill="black"/>
<path d="M26.2162 0C28.263 0 29.8883 1.66361 29.8883 3.72044C29.8883 5.68653 28.2931 7.35014 26.2162 7.35014C24.1996 7.35014 22.5442 5.68653 22.5442 3.72044C22.5743 1.66361 24.2297 0 26.2162 0ZM23.2665 33V10.9193H29.196V33H23.2665Z" fill="black"/>
<path d="M35.8479 11.4941L43.764 22.3227L35.8479 33.0001H30.1893L38.015 22.353L30.1893 11.4941H35.8479Z" fill="#E42929"/>
<path d="M47.7972 22.0203L55.5628 11.4941H48.1283L44.0649 16.9387L47.7972 22.0203Z" fill="#E42929"/>
<path d="M44.1251 27.5556L48.1283 33.0002H55.5627L47.9477 22.4136L44.1251 27.5556Z" fill="#E42929"/>
<path d="M60.9204 25.0751C61.0408 26.8294 62.3351 28.4326 64.9236 28.4326C66.88 28.4326 67.8131 27.4041 67.8131 26.2245C67.8131 25.2263 67.1509 24.4399 65.4353 24.0769L62.5458 23.4115C58.3018 22.4738 56.3755 19.9028 56.3755 16.8175C56.3755 12.8854 59.8669 9.58838 64.5925 9.58838C70.8531 9.58838 72.9299 13.581 73.2008 15.9706L68.2646 17.0898C68.084 15.7891 67.1509 14.1255 64.6527 14.1255C63.0875 14.1255 61.8535 15.0632 61.8535 16.3336C61.8535 17.4225 62.6661 18.0879 63.8701 18.2997L67.0004 18.9651C71.3347 19.8725 73.5319 22.5041 73.5319 25.7405C73.5319 29.34 70.7628 32.9999 65.0139 32.9999C58.4222 32.9999 56.1347 28.7048 55.8638 26.1942L60.9204 25.0751Z" fill="black"/>
<path d="M83.6753 10.6169H88.0998V15.9102H83.6753V25.1357C83.6753 27.0715 84.5782 27.7067 86.2638 27.7067C86.9862 27.7067 87.7687 27.616 88.0998 27.5252V32.4556C87.558 32.6673 86.5046 33 84.7588 33C80.4848 33 77.806 30.429 77.806 26.1944V15.9102H73.8329V10.6169H74.9465C77.2642 10.6169 78.3477 9.10453 78.3477 7.10819V4.02295H83.7054V10.6169H83.6753Z" fill="black"/>
<path d="M94.9624 19.6608L100.35 18.8441C101.614 18.6626 102.006 18.0275 102.006 17.2713C102.006 15.6984 100.802 14.3978 98.3034 14.3978C95.7149 14.3978 94.3002 16.0614 94.1196 17.9972L88.8523 16.878C89.2135 13.4298 92.3739 9.61865 98.2733 9.61865C105.226 9.61865 107.815 13.5508 107.815 17.9972V28.8561C107.815 30.0357 107.935 31.5783 108.086 32.3648H102.638C102.517 31.7901 102.427 30.5802 102.427 29.7332C101.313 31.4876 99.2064 33 95.9557 33C91.2602 33 88.4008 29.824 88.4008 26.3758C88.4008 22.4133 91.3204 20.2053 94.9624 19.6608ZM102.006 23.4418V22.4436L97.0392 23.1998C95.5343 23.4115 94.3303 24.2887 94.3303 25.9825C94.3303 27.2832 95.2634 28.5536 97.1897 28.5536C99.6879 28.5536 102.006 27.3437 102.006 23.4418Z" fill="black"/>
<path d="M114.286 21.2942C114.286 25.2868 116.874 27.5251 119.914 27.5251C122.954 27.5251 124.459 25.4986 124.971 23.8047L130.208 25.559C129.215 29.2492 125.784 32.9999 119.945 32.9999C113.473 32.9999 108.387 28.0696 108.387 21.2942C108.387 14.4885 113.383 9.58838 119.764 9.58838C125.754 9.58838 129.125 13.3088 130.088 17.0293L124.79 18.8139C124.249 16.9688 122.864 15.0934 119.914 15.0934C116.814 15.1237 114.286 17.3015 114.286 21.2942Z" fill="black"/>
<path d="M143.031 20.2053L152 33H144.716L138.907 24.5609L136.439 27.1622V33H130.509V0.51416H136.439V19.1164L144.024 10.9193H151.789L143.031 20.2053Z" fill="black"/>
</svg>
